<?xml version="1.0" encoding="UTF-8" standalone="no"?>
<!DOCTYPE svg PUBLIC "-//W3C//DTD SVG 1.1//EN" "http://www.w3.org/Graphics/SVG/1.1/DTD/svg11.dtd">
<!-- Generated by graphviz version 2.40.1 (20161225.0304)
 -->
<!-- Pages: 1 -->
<svg width="3950pt" height="764pt" viewBox="0.00 0.00 3949.75 764.00" xmlns="http://www.w3.org/2000/svg" xmlns:xlink="http://www.w3.org/1999/xlink">
<g id="graph0" class="graph" transform="scale(1 1) rotate(0) translate(4 760)">
<polygon fill="#ffffff" stroke="transparent" points="-4,4 -4,-760 3945.7542,-760 3945.7542,4 -4,4"/>
<!-- Circuitos Digitais -->
<g id="node1" class="node">
<title>Circuitos Digitais</title>
<ellipse fill="none" stroke="#000000" cx="306.6297" cy="-558" rx="79.3656" ry="18"/>
<text text-anchor="middle" x="306.6297" y="-553.8" font-family="Times,serif" font-size="14.00" fill="#000000">Circuitos Digitais</text>
</g>
<!-- Arquitetura de Computadores I -->
<g id="node2" class="node">
<title>Arquitetura de Computadores I</title>
<ellipse fill="none" stroke="#000000" cx="306.6297" cy="-378" rx="131.3844" ry="18"/>
<text text-anchor="middle" x="306.6297" y="-373.8" font-family="Times,serif" font-size="14.00" fill="#000000">Arquitetura de Computadores I</text>
</g>
<!-- Circuitos Digitais&#45;&gt;Arquitetura de Computadores I -->
<g id="edge1" class="edge">
<title>Circuitos Digitais-&gt;Arquitetura de Computadores I</title>
<path fill="none" stroke="#000000" d="M306.6297,-539.7501C306.6297,-508.2686 306.6297,-443.5502 306.6297,-406.2249"/>
<polygon fill="#000000" stroke="#000000" points="310.1298,-406.0306 306.6297,-396.0306 303.1298,-406.0306 310.1298,-406.0306"/>
</g>
<!-- Arquitetura de Computadores II -->
<g id="node22" class="node">
<title>Arquitetura de Computadores II</title>
<ellipse fill="none" stroke="#000000" cx="319.6297" cy="-198" rx="134.8142" ry="18"/>
<text text-anchor="middle" x="319.6297" y="-193.8" font-family="Times,serif" font-size="14.00" fill="#000000">Arquitetura de Computadores II</text>
</g>
<!-- Arquitetura de Computadores I&#45;&gt;Arquitetura de Computadores II -->
<g id="edge22" class="edge">
<title>Arquitetura de Computadores I-&gt;Arquitetura de Computadores II</title>
<path fill="none" stroke="#000000" d="M307.9477,-359.7501C310.2214,-328.2686 314.8955,-263.5502 317.5912,-226.2249"/>
<polygon fill="#000000" stroke="#000000" points="321.0979,-226.2568 318.3275,-216.0306 314.1161,-225.7525 321.0979,-226.2568"/>
</g>
<!-- Matemática Discreta -->
<g id="node3" class="node">
<title>Matemática Discreta</title>
<ellipse fill="none" stroke="#000000" cx="2130.6297" cy="-558" rx="93.1875" ry="18"/>
<text text-anchor="middle" x="2130.6297" y="-553.8" font-family="Times,serif" font-size="14.00" fill="#000000">Matemática Discreta</text>
</g>
<!-- Estruturas de Dados -->
<g id="node4" class="node">
<title>Estruturas de Dados</title>
<ellipse fill="none" stroke="#000000" cx="1942.6297" cy="-378" rx="88.6043" ry="18"/>
<text text-anchor="middle" x="1942.6297" y="-373.8" font-family="Times,serif" font-size="14.00" fill="#000000">Estruturas de Dados</text>
</g>
<!-- Matemática Discreta&#45;&gt;Estruturas de Dados -->
<g id="edge2" class="edge">
<title>Matemática Discreta-&gt;Estruturas de Dados</title>
<path fill="none" stroke="#000000" d="M2111.9162,-540.0828C2078.1326,-507.7369 2006.9067,-439.5419 1968.4921,-402.7619"/>
<polygon fill="#000000" stroke="#000000" points="1970.9111,-400.2324 1961.2675,-395.8447 1966.0701,-405.2885 1970.9111,-400.2324"/>
</g>
<!-- Linguagens Formais e Autômatos -->
<g id="node5" class="node">
<title>Linguagens Formais e Autômatos</title>
<ellipse fill="none" stroke="#000000" cx="2371.6297" cy="-378" rx="142.3984" ry="18"/>
<text text-anchor="middle" x="2371.6297" y="-373.8" font-family="Times,serif" font-size="14.00" fill="#000000">Linguagens Formais e Autômatos</text>
</g>
<!-- Matemática Discreta&#45;&gt;Linguagens Formais e Autômatos -->
<g id="edge3" class="edge">
<title>Matemática Discreta-&gt;Linguagens Formais e Autômatos</title>
<path fill="none" stroke="#000000" d="M2154.1766,-540.4131C2197.6186,-507.9668 2290.4133,-438.6596 2339.5573,-401.9545"/>
<polygon fill="#000000" stroke="#000000" points="2341.7127,-404.7132 2347.6302,-395.9249 2337.5238,-399.1048 2341.7127,-404.7132"/>
</g>
<!-- Teoria dos Grafos -->
<g id="node6" class="node">
<title>Teoria dos Grafos</title>
<ellipse fill="none" stroke="#000000" cx="2130.6297" cy="-378" rx="80.9988" ry="18"/>
<text text-anchor="middle" x="2130.6297" y="-373.8" font-family="Times,serif" font-size="14.00" fill="#000000">Teoria dos Grafos</text>
</g>
<!-- Matemática Discreta&#45;&gt;Teoria dos Grafos -->
<g id="edge4" class="edge">
<title>Matemática Discreta-&gt;Teoria dos Grafos</title>
<path fill="none" stroke="#000000" d="M2130.6297,-539.7501C2130.6297,-508.2686 2130.6297,-443.5502 2130.6297,-406.2249"/>
<polygon fill="#000000" stroke="#000000" points="2134.1298,-406.0306 2130.6297,-396.0306 2127.1298,-406.0306 2134.1298,-406.0306"/>
</g>
<!-- Algoritmos em Grafos -->
<g id="node19" class="node">
<title>Algoritmos em Grafos</title>
<ellipse fill="none" stroke="#000000" cx="1942.6297" cy="-198" rx="97.8517" ry="18"/>
<text text-anchor="middle" x="1942.6297" y="-193.8" font-family="Times,serif" font-size="14.00" fill="#000000">Algoritmos em Grafos</text>
</g>
<!-- Estruturas de Dados&#45;&gt;Algoritmos em Grafos -->
<g id="edge16" class="edge">
<title>Estruturas de Dados-&gt;Algoritmos em Grafos</title>
<path fill="none" stroke="#000000" d="M1942.6297,-359.7501C1942.6297,-328.2686 1942.6297,-263.5502 1942.6297,-226.2249"/>
<polygon fill="#000000" stroke="#000000" points="1946.1298,-226.0306 1942.6297,-216.0306 1939.1298,-226.0306 1946.1298,-226.0306"/>
</g>
<!-- Inteligência Artificial -->
<g id="node20" class="node">
<title>Inteligência Artificial</title>
<ellipse fill="none" stroke="#000000" cx="1496.6297" cy="-198" rx="97.7802" ry="18"/>
<text text-anchor="middle" x="1496.6297" y="-193.8" font-family="Times,serif" font-size="14.00" fill="#000000">Inteligência Artificial</text>
</g>
<!-- Estruturas de Dados&#45;&gt;Inteligência Artificial -->
<g id="edge17" class="edge">
<title>Estruturas de Dados-&gt;Inteligência Artificial</title>
<path fill="none" stroke="#000000" d="M1902.6577,-361.8678C1821.1715,-328.981 1636.0259,-254.2586 1546.6906,-218.204"/>
<polygon fill="#000000" stroke="#000000" points="1547.8996,-214.9177 1537.3165,-214.4207 1545.2798,-221.4089 1547.8996,-214.9177"/>
</g>
<!-- Compiladores -->
<g id="node21" class="node">
<title>Compiladores</title>
<ellipse fill="none" stroke="#000000" cx="2127.6297" cy="-198" rx="65.4285" ry="18"/>
<text text-anchor="middle" x="2127.6297" y="-193.8" font-family="Times,serif" font-size="14.00" fill="#000000">Compiladores</text>
</g>
<!-- Estruturas de Dados&#45;&gt;Compiladores -->
<g id="edge18" class="edge">
<title>Estruturas de Dados-&gt;Compiladores</title>
<path fill="none" stroke="#000000" d="M1961.0445,-360.0828C1994.2358,-327.7886 2064.1541,-259.76 2101.9983,-222.9387"/>
<polygon fill="#000000" stroke="#000000" points="2104.8357,-225.0613 2109.5622,-215.5792 2099.9542,-220.0442 2104.8357,-225.0613"/>
</g>
<!-- Teoria da Computação -->
<g id="node33" class="node">
<title>Teoria da Computação</title>
<ellipse fill="none" stroke="#000000" cx="2371.6297" cy="-198" rx="106.5063" ry="18"/>
<text text-anchor="middle" x="2371.6297" y="-193.8" font-family="Times,serif" font-size="14.00" fill="#000000">Teoria da Computação</text>
</g>
<!-- Linguagens Formais e Autômatos&#45;&gt;Teoria da Computação -->
<g id="edge28" class="edge">
<title>Linguagens Formais e Autômatos-&gt;Teoria da Computação</title>
<path fill="none" stroke="#000000" d="M2371.6297,-359.7501C2371.6297,-328.2686 2371.6297,-263.5502 2371.6297,-226.2249"/>
<polygon fill="#000000" stroke="#000000" points="2375.1298,-226.0306 2371.6297,-216.0306 2368.1298,-226.0306 2375.1298,-226.0306"/>
</g>
<!-- Teoria dos Grafos&#45;&gt;Compiladores -->
<g id="edge30" class="edge">
<title>Teoria dos Grafos-&gt;Compiladores</title>
<path fill="none" stroke="#000000" d="M2130.3255,-359.7501C2129.8008,-328.2686 2128.7222,-263.5502 2128.1001,-226.2249"/>
<polygon fill="#000000" stroke="#000000" points="2131.5964,-225.9709 2127.9302,-216.0306 2124.5974,-226.0876 2131.5964,-225.9709"/>
</g>
<!-- Linguagens de Programação -->
<g id="node7" class="node">
<title>Linguagens de Programação</title>
<ellipse fill="none" stroke="#000000" cx="2723.6297" cy="-738" rx="128.4801" ry="18"/>
<text text-anchor="middle" x="2723.6297" y="-733.8" font-family="Times,serif" font-size="14.00" fill="#000000">Linguagens de Programação</text>
</g>
<!-- Introdução à Ciência da Computação com Python I -->
<g id="node8" class="node">
<title>Introdução à Ciência da Computação com Python I</title>
<ellipse fill="none" stroke="#000000" cx="1241.6297" cy="-558" rx="228.0295" ry="18"/>
<text text-anchor="middle" x="1241.6297" y="-553.8" font-family="Times,serif" font-size="14.00" fill="#000000">Introdução à Ciência da Computação com Python I</text>
</g>
<!-- Introdução à Ciência da Computação com Python I&#45;&gt;Estruturas de Dados -->
<g id="edge5" class="edge">
<title>Introdução à Ciência da Computação com Python I-&gt;Estruturas de Dados</title>
<path fill="none" stroke="#000000" d="M1308.8445,-540.7408C1443.44,-506.1799 1744.5022,-428.8744 1877.4231,-394.7435"/>
<polygon fill="#000000" stroke="#000000" points="1878.6481,-398.0425 1887.4634,-392.1654 1876.9071,-391.2625 1878.6481,-398.0425"/>
</g>
<!-- Introdução à Ciência da Computação com Python II -->
<g id="node9" class="node">
<title>Introdução à Ciência da Computação com Python II</title>
<ellipse fill="none" stroke="#000000" cx="898.6297" cy="-378" rx="231.4589" ry="18"/>
<text text-anchor="middle" x="898.6297" y="-373.8" font-family="Times,serif" font-size="14.00" fill="#000000">Introdução à Ciência da Computação com Python II</text>
</g>
<!-- Introdução à Ciência da Computação com Python I&#45;&gt;Introdução à Ciência da Computação com Python II -->
<g id="edge6" class="edge">
<title>Introdução à Ciência da Computação com Python I-&gt;Introdução à Ciência da Computação com Python II</title>
<path fill="none" stroke="#000000" d="M1207.4875,-540.0828C1144.5664,-507.063 1010.4569,-436.6848 941.5136,-400.5047"/>
<polygon fill="#000000" stroke="#000000" points="943.1149,-397.3924 932.6337,-395.8447 939.8621,-403.5907 943.1149,-397.3924"/>
</g>
<!-- Laboratório de Programação Orientada a Objetos I -->
<g id="node10" class="node">
<title>Laboratório de Programação Orientada a Objetos I</title>
<ellipse fill="none" stroke="#000000" cx="1618.6297" cy="-378" rx="217.502" ry="18"/>
<text text-anchor="middle" x="1618.6297" y="-373.8" font-family="Times,serif" font-size="14.00" fill="#000000">Laboratório de Programação Orientada a Objetos I</text>
</g>
<!-- Introdução à Ciência da Computação com Python I&#45;&gt;Laboratório de Programação Orientada a Objetos I -->
<g id="edge7" class="edge">
<title>Introdução à Ciência da Computação com Python I-&gt;Laboratório de Programação Orientada a Objetos I</title>
<path fill="none" stroke="#000000" d="M1279.1562,-540.0828C1348.4555,-506.9956 1496.3195,-436.3974 1571.958,-400.2836"/>
<polygon fill="#000000" stroke="#000000" points="1573.7388,-403.3118 1581.255,-395.8447 1570.7227,-396.9949 1573.7388,-403.3118"/>
</g>
<!-- Métodos Numéricos I -->
<g id="node11" class="node">
<title>Métodos Numéricos I</title>
<ellipse fill="none" stroke="#000000" cx="552.6297" cy="-378" rx="96.6478" ry="18"/>
<text text-anchor="middle" x="552.6297" y="-373.8" font-family="Times,serif" font-size="14.00" fill="#000000">Métodos Numéricos I</text>
</g>
<!-- Introdução à Ciência da Computação com Python I&#45;&gt;Métodos Numéricos I -->
<g id="edge8" class="edge">
<title>Introdução à Ciência da Computação com Python I-&gt;Métodos Numéricos I</title>
<path fill="none" stroke="#000000" d="M1175.5655,-540.7408C1043.9306,-506.3515 750.2986,-429.6406 618.6773,-395.2548"/>
<polygon fill="#000000" stroke="#000000" points="619.2859,-391.7964 608.7259,-392.655 617.5165,-398.5691 619.2859,-391.7964"/>
</g>
<!-- Introdução à Ciência da Computação com Python II&#45;&gt;Arquitetura de Computadores II -->
<g id="edge19" class="edge">
<title>Introdução à Ciência da Computação com Python II-&gt;Arquitetura de Computadores II</title>
<path fill="none" stroke="#000000" d="M842.3228,-360.4953C733.8035,-326.7587 496.3979,-252.9538 382.73,-217.6167"/>
<polygon fill="#000000" stroke="#000000" points="383.701,-214.2534 373.1128,-214.6269 381.6229,-220.9378 383.701,-214.2534"/>
</g>
<!-- Introdução à Engenharia de Software -->
<g id="node23" class="node">
<title>Introdução à Engenharia de Software</title>
<ellipse fill="none" stroke="#000000" cx="898.6297" cy="-198" rx="163.7132" ry="18"/>
<text text-anchor="middle" x="898.6297" y="-193.8" font-family="Times,serif" font-size="14.00" fill="#000000">Introdução à Engenharia de Software</text>
</g>
<!-- Introdução à Ciência da Computação com Python II&#45;&gt;Introdução à Engenharia de Software -->
<g id="edge20" class="edge">
<title>Introdução à Ciência da Computação com Python II-&gt;Introdução à Engenharia de Software</title>
<path fill="none" stroke="#000000" d="M898.6297,-359.7501C898.6297,-328.2686 898.6297,-263.5502 898.6297,-226.2249"/>
<polygon fill="#000000" stroke="#000000" points="902.1298,-226.0306 898.6297,-216.0306 895.1298,-226.0306 902.1298,-226.0306"/>
</g>
<!-- Geometria Analítica -->
<g id="node12" class="node">
<title>Geometria Analítica</title>
<ellipse fill="none" stroke="#000000" cx="2483.6297" cy="-738" rx="93.1913" ry="18"/>
<text text-anchor="middle" x="2483.6297" y="-733.8" font-family="Times,serif" font-size="14.00" fill="#000000">Geometria Analítica</text>
</g>
<!-- Cálculo I -->
<g id="node13" class="node">
<title>Cálculo I</title>
<ellipse fill="none" stroke="#000000" cx="921.6297" cy="-558" rx="48.6932" ry="18"/>
<text text-anchor="middle" x="921.6297" y="-553.8" font-family="Times,serif" font-size="14.00" fill="#000000">Cálculo I</text>
</g>
<!-- Geometria Analítica&#45;&gt;Cálculo I -->
<g id="edge9" class="edge">
<title>Geometria Analítica-&gt;Cálculo I</title>
<path fill="none" stroke="#000000" d="M2396.0976,-731.6246C2166.6978,-714.2225 1529.5128,-661.4215 1004.6297,-576 994.2628,-574.3129 983.2387,-572.1709 972.7259,-569.9579"/>
<polygon fill="#000000" stroke="#000000" points="973.3544,-566.5131 962.8414,-567.827 971.8792,-573.3559 973.3544,-566.5131"/>
</g>
<!-- Álgebra Linear I -->
<g id="node14" class="node">
<title>Álgebra Linear I</title>
<ellipse fill="none" stroke="#000000" cx="2483.6297" cy="-558" rx="74.0749" ry="18"/>
<text text-anchor="middle" x="2483.6297" y="-553.8" font-family="Times,serif" font-size="14.00" fill="#000000">Álgebra Linear I</text>
</g>
<!-- Geometria Analítica&#45;&gt;Álgebra Linear I -->
<g id="edge10" class="edge">
<title>Geometria Analítica-&gt;Álgebra Linear I</title>
<path fill="none" stroke="#000000" d="M2483.6297,-719.7501C2483.6297,-688.2686 2483.6297,-623.5502 2483.6297,-586.2249"/>
<polygon fill="#000000" stroke="#000000" points="2487.1298,-586.0306 2483.6297,-576.0306 2480.1298,-586.0306 2487.1298,-586.0306"/>
</g>
<!-- Fundamentos de Computação Gráfica -->
<g id="node15" class="node">
<title>Fundamentos de Computação Gráfica</title>
<ellipse fill="none" stroke="#000000" cx="2742.6297" cy="-558" rx="166.6815" ry="18"/>
<text text-anchor="middle" x="2742.6297" y="-553.8" font-family="Times,serif" font-size="14.00" fill="#000000">Fundamentos de Computação Gráfica</text>
</g>
<!-- Geometria Analítica&#45;&gt;Fundamentos de Computação Gráfica -->
<g id="edge11" class="edge">
<title>Geometria Analítica-&gt;Fundamentos de Computação Gráfica</title>
<path fill="none" stroke="#000000" d="M2508.9353,-720.4131C2555.7183,-687.8998 2655.7596,-618.373 2708.4887,-581.7274"/>
<polygon fill="#000000" stroke="#000000" points="2710.6235,-584.506 2716.8377,-575.9249 2706.6286,-578.7578 2710.6235,-584.506"/>
</g>
<!-- Cálculo I&#45;&gt;Métodos Numéricos I -->
<g id="edge14" class="edge">
<title>Cálculo I-&gt;Métodos Numéricos I</title>
<path fill="none" stroke="#000000" d="M892.0566,-543.5741C827.2744,-511.973 672.5588,-436.502 596.4422,-399.372"/>
<polygon fill="#000000" stroke="#000000" points="597.6424,-396.0633 587.1202,-394.8247 594.5734,-402.3546 597.6424,-396.0633"/>
</g>
<!-- Probabilidade e Estatística -->
<g id="node16" class="node">
<title>Probabilidade e Estatística</title>
<ellipse fill="none" stroke="#000000" cx="1265.6297" cy="-378" rx="117.447" ry="18"/>
<text text-anchor="middle" x="1265.6297" y="-373.8" font-family="Times,serif" font-size="14.00" fill="#000000">Probabilidade e Estatística</text>
</g>
<!-- Cálculo I&#45;&gt;Probabilidade e Estatística -->
<g id="edge12" class="edge">
<title>Cálculo I-&gt;Probabilidade e Estatística</title>
<path fill="none" stroke="#000000" d="M949.7806,-543.2698C1010.1331,-511.6901 1152.2583,-437.3222 1223.4483,-400.0717"/>
<polygon fill="#000000" stroke="#000000" points="1225.3567,-403.0233 1232.5943,-395.2859 1222.1113,-396.8211 1225.3567,-403.0233"/>
</g>
<!-- Cálculo II -->
<g id="node17" class="node">
<title>Cálculo II</title>
<ellipse fill="none" stroke="#000000" cx="104.6297" cy="-378" rx="52.1224" ry="18"/>
<text text-anchor="middle" x="104.6297" y="-373.8" font-family="Times,serif" font-size="14.00" fill="#000000">Cálculo II</text>
</g>
<!-- Cálculo I&#45;&gt;Cálculo II -->
<g id="edge13" class="edge">
<title>Cálculo I-&gt;Cálculo II</title>
<path fill="none" stroke="#000000" d="M877.971,-549.7623C761.6935,-527.5792 435.0641,-463.6739 166.6297,-396 162.3571,-394.9229 157.9346,-393.7521 153.5091,-392.5418"/>
<polygon fill="#000000" stroke="#000000" points="154.4459,-389.1695 143.873,-389.8502 152.5627,-395.9115 154.4459,-389.1695"/>
</g>
<!-- Programação Matemática -->
<g id="node18" class="node">
<title>Programação Matemática</title>
<ellipse fill="none" stroke="#000000" cx="2651.6297" cy="-378" rx="119.7598" ry="18"/>
<text text-anchor="middle" x="2651.6297" y="-373.8" font-family="Times,serif" font-size="14.00" fill="#000000">Programação Matemática</text>
</g>
<!-- Álgebra Linear I&#45;&gt;Programação Matemática -->
<g id="edge15" class="edge">
<title>Álgebra Linear I-&gt;Programação Matemática</title>
<path fill="none" stroke="#000000" d="M2500.0441,-540.4131C2529.9519,-508.369 2593.4156,-440.3723 2627.9842,-403.3344"/>
<polygon fill="#000000" stroke="#000000" points="2630.6352,-405.6236 2634.8998,-395.9249 2625.5178,-400.8474 2630.6352,-405.6236"/>
</g>
<!-- Probabilidade e Estatística&#45;&gt;Inteligência Artificial -->
<g id="edge23" class="edge">
<title>Probabilidade e Estatística-&gt;Inteligência Artificial</title>
<path fill="none" stroke="#000000" d="M1288.6234,-360.0828C1330.5011,-327.4508 1419.2025,-258.3329 1466.0947,-221.7935"/>
<polygon fill="#000000" stroke="#000000" points="1468.333,-224.4865 1474.0697,-215.5792 1464.0304,-218.9649 1468.333,-224.4865"/>
</g>
<!-- Cálculo III -->
<g id="node25" class="node">
<title>Cálculo III</title>
<ellipse fill="none" stroke="#000000" cx="104.6297" cy="-198" rx="55.0528" ry="18"/>
<text text-anchor="middle" x="104.6297" y="-193.8" font-family="Times,serif" font-size="14.00" fill="#000000">Cálculo III</text>
</g>
<!-- Cálculo II&#45;&gt;Cálculo III -->
<g id="edge24" class="edge">
<title>Cálculo II-&gt;Cálculo III</title>
<path fill="none" stroke="#000000" d="M104.6297,-359.7501C104.6297,-328.2686 104.6297,-263.5502 104.6297,-226.2249"/>
<polygon fill="#000000" stroke="#000000" points="108.1298,-226.0306 104.6297,-216.0306 101.1298,-226.0306 108.1298,-226.0306"/>
</g>
<!-- Análise de Algoritmos -->
<g id="node24" class="node">
<title>Análise de Algoritmos</title>
<ellipse fill="none" stroke="#000000" cx="1942.6297" cy="-18" rx="100.7191" ry="18"/>
<text text-anchor="middle" x="1942.6297" y="-13.8" font-family="Times,serif" font-size="14.00" fill="#000000">Análise de Algoritmos</text>
</g>
<!-- Algoritmos em Grafos&#45;&gt;Análise de Algoritmos -->
<g id="edge21" class="edge">
<title>Algoritmos em Grafos-&gt;Análise de Algoritmos</title>
<path fill="none" stroke="#000000" d="M1942.6297,-179.7501C1942.6297,-148.2686 1942.6297,-83.5502 1942.6297,-46.2249"/>
<polygon fill="#000000" stroke="#000000" points="1946.1298,-46.0306 1942.6297,-36.0306 1939.1298,-46.0306 1946.1298,-46.0306"/>
</g>
<!-- Deep Learning -->
<g id="node34" class="node">
<title>Deep Learning</title>
<ellipse fill="none" stroke="#000000" cx="1496.6297" cy="-18" rx="68.862" ry="18"/>
<text text-anchor="middle" x="1496.6297" y="-13.8" font-family="Times,serif" font-size="14.00" fill="#000000">Deep Learning</text>
</g>
<!-- Inteligência Artificial&#45;&gt;Deep Learning -->
<g id="edge29" class="edge">
<title>Inteligência Artificial-&gt;Deep Learning</title>
<path fill="none" stroke="#000000" d="M1496.6297,-179.7501C1496.6297,-148.2686 1496.6297,-83.5502 1496.6297,-46.2249"/>
<polygon fill="#000000" stroke="#000000" points="1500.1298,-46.0306 1496.6297,-36.0306 1493.1298,-46.0306 1500.1298,-46.0306"/>
</g>
<!-- Sistemas Operacionais -->
<g id="node28" class="node">
<title>Sistemas Operacionais</title>
<ellipse fill="none" stroke="#000000" cx="325.6297" cy="-18" rx="98.9494" ry="18"/>
<text text-anchor="middle" x="325.6297" y="-13.8" font-family="Times,serif" font-size="14.00" fill="#000000">Sistemas Operacionais</text>
</g>
<!-- Arquitetura de Computadores II&#45;&gt;Sistemas Operacionais -->
<g id="edge25" class="edge">
<title>Arquitetura de Computadores II-&gt;Sistemas Operacionais</title>
<path fill="none" stroke="#000000" d="M320.238,-179.7501C321.2874,-148.2686 323.4447,-83.5502 324.6889,-46.2249"/>
<polygon fill="#000000" stroke="#000000" points="328.1935,-46.1417 325.0287,-36.0306 321.1974,-45.9084 328.1935,-46.1417"/>
</g>
<!-- Computação Quantica -->
<g id="node29" class="node">
<title>Computação Quantica</title>
<ellipse fill="none" stroke="#000000" cx="104.6297" cy="-18" rx="104.7595" ry="18"/>
<text text-anchor="middle" x="104.6297" y="-13.8" font-family="Times,serif" font-size="14.00" fill="#000000">Computação Quantica</text>
</g>
<!-- Arquitetura de Computadores II&#45;&gt;Computação Quantica -->
<g id="edge26" class="edge">
<title>Arquitetura de Computadores II-&gt;Computação Quantica</title>
<path fill="none" stroke="#000000" d="M298.2286,-180.0828C259.4322,-147.6021 177.4585,-78.9729 133.6592,-42.3038"/>
<polygon fill="#000000" stroke="#000000" points="135.8586,-39.5804 125.9442,-35.8447 131.365,-44.9478 135.8586,-39.5804"/>
</g>
<!-- Cálculo III&#45;&gt;Computação Quantica -->
<g id="edge31" class="edge">
<title>Cálculo III-&gt;Computação Quantica</title>
<path fill="none" stroke="#000000" d="M104.6297,-179.7501C104.6297,-148.2686 104.6297,-83.5502 104.6297,-46.2249"/>
<polygon fill="#000000" stroke="#000000" points="108.1298,-46.0306 104.6297,-36.0306 101.1298,-46.0306 108.1298,-46.0306"/>
</g>
<!-- Programação Funcional -->
<g id="node26" class="node">
<title>Programação Funcional</title>
<ellipse fill="none" stroke="#000000" cx="2980.6297" cy="-738" rx="110.5582" ry="18"/>
<text text-anchor="middle" x="2980.6297" y="-733.8" font-family="Times,serif" font-size="14.00" fill="#000000">Programação Funcional</text>
</g>
<!-- Banco de Dados -->
<g id="node27" class="node">
<title>Banco de Dados</title>
<ellipse fill="none" stroke="#000000" cx="3183.6297" cy="-738" rx="74.1432" ry="18"/>
<text text-anchor="middle" x="3183.6297" y="-733.8" font-family="Times,serif" font-size="14.00" fill="#000000">Banco de Dados</text>
</g>
<!-- Programação Lógica -->
<g id="node30" class="node">
<title>Programação Lógica</title>
<ellipse fill="none" stroke="#000000" cx="3377.6297" cy="-738" rx="101.8689" ry="18"/>
<text text-anchor="middle" x="3377.6297" y="-733.8" font-family="Times,serif" font-size="14.00" fill="#000000">Programação Lógica</text>
</g>
<!-- Redes de Computadores -->
<g id="node31" class="node">
<title>Redes de Computadores</title>
<ellipse fill="none" stroke="#000000" cx="3602.6297" cy="-738" rx="104.8003" ry="18"/>
<text text-anchor="middle" x="3602.6297" y="-733.8" font-family="Times,serif" font-size="14.00" fill="#000000">Redes de Computadores</text>
</g>
<!-- Sistemas Distribuídos -->
<g id="node32" class="node">
<title>Sistemas Distribuídos</title>
<ellipse fill="none" stroke="#000000" cx="3602.6297" cy="-558" rx="99.0503" ry="18"/>
<text text-anchor="middle" x="3602.6297" y="-553.8" font-family="Times,serif" font-size="14.00" fill="#000000">Sistemas Distribuídos</text>
</g>
<!-- Redes de Computadores&#45;&gt;Sistemas Distribuídos -->
<g id="edge27" class="edge">
<title>Redes de Computadores-&gt;Sistemas Distribuídos</title>
<path fill="none" stroke="#000000" d="M3602.6297,-719.7501C3602.6297,-688.2686 3602.6297,-623.5502 3602.6297,-586.2249"/>
<polygon fill="#000000" stroke="#000000" points="3606.1298,-586.0306 3602.6297,-576.0306 3599.1298,-586.0306 3606.1298,-586.0306"/>
</g>
<!-- Metodologia da Pesquisa -->
<g id="node35" class="node">
<title>Metodologia da Pesquisa</title>
<ellipse fill="none" stroke="#000000" cx="3833.6297" cy="-738" rx="108.2492" ry="18"/>
<text text-anchor="middle" x="3833.6297" y="-733.8" font-family="Times,serif" font-size="14.00" fill="#000000">Metodologia da Pesquisa</text>
</g>
</g>
</svg>